<svg width="29" height="29" viewBox="0 0 43 41" fill="none" xmlns="http://www.w3.org/2000/svg">
<path fill-rule="evenodd" clip-rule="evenodd" d="M8.18409 6.37473C7.68445 5.87509 6.87437 5.87509 6.37473 6.37473C5.87509 6.87437 5.87509 7.68445 6.37473 8.18409L8.55882 10.3682V28.603C8.55882 30.7228 10.2773 32.4413 12.3971 32.4413H30.6319L32.8159 34.6253C33.3155 35.1249 34.1256 35.1249 34.6253 34.6253C35.1249 34.1256 35.1249 33.3155 34.6253 32.8159L8.18409 6.37473ZM28.0731 29.8825L23.5824 25.3918L23.101 25.8044L27.016 29.8825H28.0731ZM11.1176 12.927L21.7677 23.5771L21.3261 23.9555L18.7102 21.2306C17.3776 19.8425 15.2232 19.6556 13.6716 20.7935L11.1176 22.6664V12.927ZM23.4689 29.8825L16.8643 23.0027C16.4201 22.54 15.702 22.4777 15.1847 22.857L11.1176 25.8395V28.603C11.1176 29.3096 11.6905 29.8825 12.3971 29.8825H23.4689Z" fill="#9AA0A6"/>
<path d="M13.7687 8.13235C13.7687 7.42575 14.3415 6.85294 15.0481 6.85294H30.3088C32.4286 6.85294 34.147 8.57138 34.147 10.6912V26.0441C34.147 26.7507 33.5742 27.3235 32.8676 27.3235C32.5113 27.3235 32.189 27.1779 31.9571 26.9429L29.4041 24.39C28.9045 23.8903 28.9045 23.0803 29.4041 22.5806C29.9038 22.081 30.7139 22.081 31.2135 22.5806L31.5882 22.9553V10.6912C31.5882 9.98458 31.0154 9.41176 30.3088 9.41176H15.0481C14.3415 9.41176 13.7687 8.83895 13.7687 8.13235Z" fill="#9AA0A6"/>
</svg>
