<svg xmlns="http://www.w3.org/2000/svg" xmlns:xlink="http://www.w3.org/1999/xlink" width="500" zoomAndPan="magnify" viewBox="0 0 375 374.999991" height="500" preserveAspectRatio="xMidYMid meet" version="1.0"><defs><g/><clipPath id="14a4b19dd8"><path d="M 42 155.101562 L 76.988281 155.101562 L 76.988281 190 L 42 190 Z M 42 155.101562 " clip-rule="nonzero"/></clipPath><clipPath id="d547de5100"><path d="M 17.738281 163 L 69 163 L 69 214.351562 L 17.738281 214.351562 Z M 17.738281 163 " clip-rule="nonzero"/></clipPath></defs><g clip-path="url(#14a4b19dd8)"><path fill="#5f6368" d="M 42.707031 179.605469 L 42.339844 186.46875 C 42.296875 187.277344 42.597656 188.066406 43.171875 188.640625 C 43.710938 189.175781 44.433594 189.472656 45.1875 189.472656 C 45.242188 189.472656 45.292969 189.472656 45.347656 189.46875 L 52.199219 189.089844 C 52.898438 189.050781 53.558594 188.753906 54.058594 188.257812 L 75.871094 166.46875 C 76.40625 165.933594 76.707031 165.207031 76.707031 164.449219 C 76.707031 163.695312 76.40625 162.96875 75.871094 162.433594 L 69.378906 155.9375 C 68.84375 155.402344 68.117188 155.101562 67.359375 155.101562 C 66.605469 155.101562 65.878906 155.402344 65.34375 155.9375 L 43.539062 177.738281 C 43.042969 178.238281 42.746094 178.902344 42.707031 179.605469 Z M 48.347656 181.003906 L 67.359375 161.988281 L 69.816406 164.449219 L 50.792969 183.453125 L 48.207031 183.59375 Z M 48.347656 181.003906 " fill-opacity="1" fill-rule="nonzero"/></g><g clip-path="url(#d547de5100)"><path fill="#5f6368" d="M 27.371094 214.070312 L 59.015625 214.070312 C 64.328125 214.070312 68.648438 209.746094 68.648438 204.4375 L 68.648438 184.929688 C 68.648438 183.355469 67.371094 182.078125 65.796875 182.078125 C 64.21875 182.078125 62.941406 183.355469 62.941406 184.929688 L 62.941406 204.4375 C 62.941406 206.601562 61.179688 208.363281 59.015625 208.363281 L 27.371094 208.363281 C 25.207031 208.363281 23.445312 206.601562 23.445312 204.4375 L 23.445312 172.792969 C 23.445312 170.628906 25.207031 168.867188 27.371094 168.867188 L 46.878906 168.867188 C 48.453125 168.867188 49.734375 167.589844 49.734375 166.011719 C 49.734375 164.4375 48.453125 163.160156 46.878906 163.160156 L 27.371094 163.160156 C 22.058594 163.160156 17.738281 167.480469 17.738281 172.792969 L 17.738281 204.4375 C 17.738281 209.746094 22.058594 214.070312 27.371094 214.070312 Z M 27.371094 214.070312 " fill-opacity="1" fill-rule="nonzero"/></g><g fill="#5f6368" fill-opacity="1"><g transform="translate(81.224604, 211.337594)"><g><path d="M 44.25 -51.109375 C 44.882812 -51.109375 45.382812 -50.910156 45.75 -50.515625 C 46.113281 -50.128906 46.296875 -49.644531 46.296875 -49.0625 L 46.296875 -2.34375 C 46.296875 -1.601562 46.078125 -1.023438 45.640625 -0.609375 C 45.203125 -0.203125 44.664062 0 44.03125 0 C 43.6875 0 43.351562 -0.0703125 43.03125 -0.21875 C 42.71875 -0.363281 42.46875 -0.535156 42.28125 -0.734375 L 10.953125 -42.9375 L 10.953125 -1.96875 C 10.953125 -1.4375 10.742188 -0.972656 10.328125 -0.578125 C 9.921875 -0.191406 9.445312 0 8.90625 0 C 8.320312 0 7.832031 -0.191406 7.4375 -0.578125 C 7.050781 -0.972656 6.859375 -1.4375 6.859375 -1.96875 L 6.859375 -48.921875 C 6.859375 -49.597656 7.066406 -50.128906 7.484375 -50.515625 C 7.898438 -50.910156 8.398438 -51.109375 8.984375 -51.109375 C 9.765625 -51.109375 10.347656 -50.84375 10.734375 -50.3125 L 42.203125 -7.890625 L 42.203125 -49.0625 C 42.203125 -49.644531 42.394531 -50.128906 42.78125 -50.515625 C 43.175781 -50.910156 43.664062 -51.109375 44.25 -51.109375 Z M 44.25 -51.109375 "/></g></g></g><g fill="#5f6368" fill-opacity="1"><g transform="translate(134.375703, 211.337594)"><g><path d="M 40.234375 -18.6875 C 40.234375 -15.039062 39.425781 -11.734375 37.8125 -8.765625 C 36.207031 -5.796875 33.992188 -3.46875 31.171875 -1.78125 C 28.347656 -0.101562 25.210938 0.734375 21.765625 0.734375 C 18.304688 0.734375 15.164062 -0.101562 12.34375 -1.78125 C 9.519531 -3.46875 7.300781 -5.796875 5.6875 -8.765625 C 4.082031 -11.734375 3.28125 -15.039062 3.28125 -18.6875 C 3.28125 -22.34375 4.082031 -25.65625 5.6875 -28.625 C 7.300781 -31.59375 9.519531 -33.925781 12.34375 -35.625 C 15.164062 -37.332031 18.304688 -38.1875 21.765625 -38.1875 C 25.210938 -38.1875 28.347656 -37.332031 31.171875 -35.625 C 33.992188 -33.925781 36.207031 -31.59375 37.8125 -28.625 C 39.425781 -25.65625 40.234375 -22.34375 40.234375 -18.6875 Z M 35.84375 -18.6875 C 35.84375 -21.613281 35.234375 -24.242188 34.015625 -26.578125 C 32.804688 -28.910156 31.117188 -30.742188 28.953125 -32.078125 C 26.785156 -33.421875 24.390625 -34.09375 21.765625 -34.09375 C 19.128906 -34.09375 16.738281 -33.421875 14.59375 -32.078125 C 12.457031 -30.742188 10.769531 -28.910156 9.53125 -26.578125 C 8.289062 -24.242188 7.671875 -21.613281 7.671875 -18.6875 C 7.671875 -15.820312 8.289062 -13.21875 9.53125 -10.875 C 10.769531 -8.539062 12.457031 -6.703125 14.59375 -5.359375 C 16.738281 -4.023438 19.128906 -3.359375 21.765625 -3.359375 C 24.390625 -3.359375 26.785156 -4.015625 28.953125 -5.328125 C 31.117188 -6.640625 32.804688 -8.460938 34.015625 -10.796875 C 35.234375 -13.140625 35.84375 -15.769531 35.84375 -18.6875 Z M 35.84375 -18.6875 "/></g></g></g><g fill="#5f6368" fill-opacity="1"><g transform="translate(177.8165, 211.337594)"><g><path d="M 13.0625 -33.078125 L 13.0625 -8.609375 C 13.0625 -6.765625 13.398438 -5.515625 14.078125 -4.859375 C 14.765625 -4.203125 15.671875 -3.875 16.796875 -3.875 C 17.085938 -3.875 17.453125 -3.929688 17.890625 -4.046875 C 18.328125 -4.171875 18.664062 -4.234375 18.90625 -4.234375 C 19.34375 -4.234375 19.71875 -4.050781 20.03125 -3.6875 C 20.351562 -3.320312 20.515625 -2.894531 20.515625 -2.40625 C 20.515625 -1.726562 20.125 -1.15625 19.34375 -0.6875 C 18.570312 -0.226562 17.648438 0 16.578125 0 C 15.265625 0 14.09375 -0.117188 13.0625 -0.359375 C 12.039062 -0.609375 11.054688 -1.335938 10.109375 -2.546875 C 9.160156 -3.765625 8.6875 -5.710938 8.6875 -8.390625 L 8.6875 -33.078125 L 3.359375 -33.078125 C 2.773438 -33.078125 2.273438 -33.269531 1.859375 -33.65625 C 1.441406 -34.050781 1.234375 -34.539062 1.234375 -35.125 C 1.234375 -35.707031 1.441406 -36.191406 1.859375 -36.578125 C 2.273438 -36.972656 2.773438 -37.171875 3.359375 -37.171875 L 8.6875 -37.171875 L 8.6875 -45.265625 C 8.6875 -45.898438 8.894531 -46.421875 9.3125 -46.828125 C 9.726562 -47.242188 10.25 -47.453125 10.875 -47.453125 C 11.507812 -47.453125 12.03125 -47.242188 12.4375 -46.828125 C 12.851562 -46.421875 13.0625 -45.898438 13.0625 -45.265625 L 13.0625 -37.171875 L 20.375 -37.171875 C 20.90625 -37.171875 21.378906 -36.945312 21.796875 -36.5 C 22.210938 -36.0625 22.421875 -35.578125 22.421875 -35.046875 C 22.421875 -34.460938 22.222656 -33.988281 21.828125 -33.625 C 21.441406 -33.257812 20.957031 -33.078125 20.375 -33.078125 Z M 13.0625 -33.078125 "/></g></g></g><g fill="#5f6368" fill-opacity="1"><g transform="translate(202.566801, 211.337594)"><g><path d="M 40.234375 -18.6875 C 40.234375 -15.039062 39.425781 -11.734375 37.8125 -8.765625 C 36.207031 -5.796875 33.992188 -3.46875 31.171875 -1.78125 C 28.347656 -0.101562 25.210938 0.734375 21.765625 0.734375 C 18.304688 0.734375 15.164062 -0.101562 12.34375 -1.78125 C 9.519531 -3.46875 7.300781 -5.796875 5.6875 -8.765625 C 4.082031 -11.734375 3.28125 -15.039062 3.28125 -18.6875 C 3.28125 -22.34375 4.082031 -25.65625 5.6875 -28.625 C 7.300781 -31.59375 9.519531 -33.925781 12.34375 -35.625 C 15.164062 -37.332031 18.304688 -38.1875 21.765625 -38.1875 C 25.210938 -38.1875 28.347656 -37.332031 31.171875 -35.625 C 33.992188 -33.925781 36.207031 -31.59375 37.8125 -28.625 C 39.425781 -25.65625 40.234375 -22.34375 40.234375 -18.6875 Z M 35.84375 -18.6875 C 35.84375 -21.613281 35.234375 -24.242188 34.015625 -26.578125 C 32.804688 -28.910156 31.117188 -30.742188 28.953125 -32.078125 C 26.785156 -33.421875 24.390625 -34.09375 21.765625 -34.09375 C 19.128906 -34.09375 16.738281 -33.421875 14.59375 -32.078125 C 12.457031 -30.742188 10.769531 -28.910156 9.53125 -26.578125 C 8.289062 -24.242188 7.671875 -21.613281 7.671875 -18.6875 C 7.671875 -15.820312 8.289062 -13.21875 9.53125 -10.875 C 10.769531 -8.539062 12.457031 -6.703125 14.59375 -5.359375 C 16.738281 -4.023438 19.128906 -3.359375 21.765625 -3.359375 C 24.390625 -3.359375 26.785156 -4.015625 28.953125 -5.328125 C 31.117188 -6.640625 32.804688 -8.460938 34.015625 -10.796875 C 35.234375 -13.140625 35.84375 -15.769531 35.84375 -18.6875 Z M 35.84375 -18.6875 "/></g></g></g><g fill="#5f6368" fill-opacity="1"><g transform="translate(246.007598, 211.337594)"><g><path d="M 23.515625 -37.609375 C 26.722656 -37.609375 29.640625 -36.789062 32.265625 -35.15625 C 34.898438 -33.53125 36.957031 -31.265625 38.4375 -28.359375 C 39.925781 -25.460938 40.671875 -22.21875 40.671875 -18.625 C 40.671875 -14.96875 39.925781 -11.691406 38.4375 -8.796875 C 36.957031 -5.898438 34.914062 -3.625 32.3125 -1.96875 C 29.707031 -0.3125 26.796875 0.515625 23.578125 0.515625 C 20.753906 0.515625 18.160156 -0.148438 15.796875 -1.484375 C 13.441406 -2.828125 11.5625 -4.617188 10.15625 -6.859375 L 10.15625 12.40625 C 10.15625 13.039062 9.945312 13.566406 9.53125 13.984375 C 9.113281 14.398438 8.585938 14.609375 7.953125 14.609375 C 7.328125 14.609375 6.804688 14.398438 6.390625 13.984375 C 5.972656 13.566406 5.765625 13.039062 5.765625 12.40625 L 5.765625 -35.1875 C 5.765625 -35.820312 5.972656 -36.359375 6.390625 -36.796875 C 6.804688 -37.234375 7.328125 -37.453125 7.953125 -37.453125 C 8.585938 -37.453125 9.113281 -37.234375 9.53125 -36.796875 C 9.945312 -36.359375 10.15625 -35.820312 10.15625 -35.1875 L 10.15625 -30.234375 C 11.414062 -32.515625 13.238281 -34.3125 15.625 -35.625 C 18.007812 -36.945312 20.640625 -37.609375 23.515625 -37.609375 Z M 23.140625 -3.578125 C 25.671875 -3.578125 27.945312 -4.222656 29.96875 -5.515625 C 31.988281 -6.804688 33.570312 -8.59375 34.71875 -10.875 C 35.863281 -13.164062 36.4375 -15.75 36.4375 -18.625 C 36.4375 -21.445312 35.863281 -23.988281 34.71875 -26.25 C 33.570312 -28.507812 31.988281 -30.285156 29.96875 -31.578125 C 27.945312 -32.867188 25.671875 -33.515625 23.140625 -33.515625 C 20.566406 -33.515625 18.253906 -32.878906 16.203125 -31.609375 C 14.160156 -30.347656 12.578125 -28.582031 11.453125 -26.3125 C 10.335938 -24.050781 9.78125 -21.488281 9.78125 -18.625 C 9.78125 -15.75 10.335938 -13.164062 11.453125 -10.875 C 12.578125 -8.59375 14.160156 -6.804688 16.203125 -5.515625 C 18.253906 -4.222656 20.566406 -3.578125 23.140625 -3.578125 Z M 23.140625 -3.578125 "/></g></g></g><g fill="#5f6368" fill-opacity="1"><g transform="translate(289.959473, 211.337594)"><g><path d="M 10 -2.1875 C 10 -1.550781 9.789062 -1.023438 9.375 -0.609375 C 8.96875 -0.203125 8.445312 0 7.8125 0 C 7.175781 0 6.648438 -0.203125 6.234375 -0.609375 C 5.828125 -1.023438 5.625 -1.550781 5.625 -2.1875 L 5.625 -35.78125 C 5.625 -36.414062 5.828125 -36.9375 6.234375 -37.34375 C 6.648438 -37.757812 7.175781 -37.96875 7.8125 -37.96875 C 8.445312 -37.96875 8.96875 -37.757812 9.375 -37.34375 C 9.789062 -36.9375 10 -36.414062 10 -35.78125 Z M 7.8125 -42.859375 C 6.832031 -42.859375 6.070312 -43.085938 5.53125 -43.546875 C 5 -44.015625 4.734375 -44.6875 4.734375 -45.5625 L 4.734375 -46.28125 C 4.734375 -47.15625 5.015625 -47.820312 5.578125 -48.28125 C 6.140625 -48.75 6.90625 -48.984375 7.875 -48.984375 C 9.820312 -48.984375 10.796875 -48.082031 10.796875 -46.28125 L 10.796875 -45.5625 C 10.796875 -44.6875 10.539062 -44.015625 10.03125 -43.546875 C 9.519531 -43.085938 8.78125 -42.859375 7.8125 -42.859375 Z M 7.8125 -42.859375 "/></g></g></g><g fill="#5f6368" fill-opacity="1"><g transform="translate(305.583557, 211.337594)"><g><path d="M 36.0625 -37.3125 C 36.695312 -37.3125 37.222656 -37.09375 37.640625 -36.65625 C 38.054688 -36.21875 38.265625 -35.679688 38.265625 -35.046875 L 38.265625 -2.1875 C 38.265625 -1.550781 38.054688 -1.023438 37.640625 -0.609375 C 37.222656 -0.203125 36.695312 0 36.0625 0 C 35.4375 0 34.914062 -0.203125 34.5 -0.609375 C 34.082031 -1.023438 33.875 -1.550781 33.875 -2.1875 L 33.875 -7.078125 C 32.65625 -4.890625 30.828125 -3.039062 28.390625 -1.53125 C 25.960938 -0.0195312 23.3125 0.734375 20.4375 0.734375 C 17.175781 0.734375 14.242188 -0.113281 11.640625 -1.8125 C 9.035156 -3.519531 6.988281 -5.859375 5.5 -8.828125 C 4.019531 -11.796875 3.28125 -15.132812 3.28125 -18.84375 C 3.28125 -22.539062 4.035156 -25.859375 5.546875 -28.796875 C 7.054688 -31.742188 9.113281 -34.046875 11.71875 -35.703125 C 14.320312 -37.359375 17.207031 -38.1875 20.375 -38.1875 C 23.289062 -38.1875 25.960938 -37.476562 28.390625 -36.0625 C 30.828125 -34.65625 32.65625 -32.804688 33.875 -30.515625 L 33.875 -35.046875 C 33.875 -35.679688 34.082031 -36.21875 34.5 -36.65625 C 34.914062 -37.09375 35.4375 -37.3125 36.0625 -37.3125 Z M 20.875 -3.359375 C 23.40625 -3.359375 25.679688 -4.023438 27.703125 -5.359375 C 29.722656 -6.703125 31.304688 -8.550781 32.453125 -10.90625 C 33.597656 -13.269531 34.171875 -15.914062 34.171875 -18.84375 C 34.171875 -21.664062 33.597656 -24.242188 32.453125 -26.578125 C 31.304688 -28.910156 29.722656 -30.742188 27.703125 -32.078125 C 25.679688 -33.421875 23.40625 -34.09375 20.875 -34.09375 C 18.34375 -34.09375 16.066406 -33.4375 14.046875 -32.125 C 12.035156 -30.8125 10.457031 -29 9.3125 -26.6875 C 8.164062 -24.375 7.59375 -21.757812 7.59375 -18.84375 C 7.59375 -15.914062 8.148438 -13.269531 9.265625 -10.90625 C 10.390625 -8.550781 11.960938 -6.703125 13.984375 -5.359375 C 16.003906 -4.023438 18.300781 -3.359375 20.875 -3.359375 Z M 20.875 -3.359375 "/></g></g></g></svg>