<svg width="325" height="90" viewBox="0 0 325 90" fill="none" xmlns="http://www.w3.org/2000/svg">
<path d="M26.392 20.6293C30.3742 20.6293 33.8444 22.0516 36.8027 24.896C39.8178 27.7404 41.3253 32.1493 41.3253 38.1227V65.1733C41.3253 69.7244 39.0213 72 34.4133 72C29.8622 72 27.5867 69.7244 27.5867 65.1733V40.5973C27.5867 38.0942 26.9324 36.16 25.624 34.7947C24.3156 33.3724 22.7796 32.6613 21.016 32.6613C19.1956 32.6613 17.5742 33.3724 16.152 34.7947C14.7867 36.2169 14.104 38.1511 14.104 40.5973V65.1733C14.104 69.7244 11.8 72 7.192 72C2.81156 72 0.621333 69.7244 0.621333 65.1733V27.968C0.621333 25.9769 1.19022 24.2987 2.328 22.9333C3.52267 21.5111 5.144 20.8 7.192 20.8C9.35378 20.8 11.032 21.4542 12.2267 22.7627C13.4782 24.0142 14.104 25.4364 14.104 27.0293C17.688 22.7627 21.784 20.6293 26.392 20.6293ZM69.8717 20.1173C74.6503 20.1173 78.8317 21.3973 82.4157 23.9573C85.9997 26.5173 88.6166 29.76 90.2663 33.6853C91.973 37.6107 92.8263 41.8773 92.8263 46.4853C92.8263 53.824 90.7783 60.0533 86.6823 65.1733C82.5863 70.2364 76.9828 72.768 69.8717 72.768C62.7037 72.768 57.0717 70.1511 52.9757 64.9173C48.9366 59.6267 46.917 53.312 46.917 45.9733C46.917 38.6916 48.9366 32.576 52.9757 27.6267C57.0148 22.6204 62.6468 20.1173 69.8717 20.1173ZM69.8717 32.6613C66.9134 32.6613 64.6663 33.9413 63.1303 36.5013C61.5943 39.0044 60.8263 42.0196 60.8263 45.5467C60.8263 47.7653 61.1108 49.9556 61.6797 52.1173C62.3054 54.2791 63.3294 56.2133 64.7517 57.92C66.1739 59.5698 67.8806 60.3947 69.8717 60.3947C72.773 60.3947 74.9917 59.0578 76.5277 56.384C78.0637 53.6533 78.8317 50.5244 78.8317 46.9973C78.8317 43.4133 78.0352 40.1422 76.4423 37.184C74.9063 34.1689 72.7161 32.6613 69.8717 32.6613ZM110.909 11.4133C115.517 11.4133 117.821 13.6604 117.821 18.1547V21.6533H121.661C124.164 21.6533 125.956 22.0516 127.037 22.848C128.118 23.5876 128.659 25.0667 128.659 27.2853C128.659 29.4471 128.118 30.9547 127.037 31.808C125.956 32.6044 124.193 33.0027 121.747 33.0027H117.821V53.9947C117.821 56.0427 117.935 57.4649 118.163 58.2613C118.39 59.0578 118.902 59.456 119.699 59.456C124.591 59.456 127.037 61.6747 127.037 66.112C127.037 70.4924 124.591 72.6827 119.699 72.6827C113.725 72.6827 109.629 71.1467 107.411 68.0747C105.249 65.0027 104.168 60.3093 104.168 53.9947V32.832C102.177 32.6613 100.641 32.1493 99.56 31.296C98.536 30.4427 98.024 29.0773 98.024 27.2C98.024 25.3796 98.536 24.0711 99.56 23.2747C100.584 22.4782 102.12 21.9378 104.168 21.6533V18.1547C104.168 13.6604 106.415 11.4133 110.909 11.4133ZM156.997 20.1173C161.775 20.1173 165.957 21.3973 169.541 23.9573C173.125 26.5173 175.742 29.76 177.391 33.6853C179.098 37.6107 179.951 41.8773 179.951 46.4853C179.951 53.824 177.903 60.0533 173.807 65.1733C169.711 70.2364 164.108 72.768 156.997 72.768C149.829 72.768 144.197 70.1511 140.101 64.9173C136.062 59.6267 134.042 53.312 134.042 45.9733C134.042 38.6916 136.062 32.576 140.101 27.6267C144.14 22.6204 149.772 20.1173 156.997 20.1173ZM156.997 32.6613C154.038 32.6613 151.791 33.9413 150.255 36.5013C148.719 39.0044 147.951 42.0196 147.951 45.5467C147.951 47.7653 148.236 49.9556 148.805 52.1173C149.43 54.2791 150.454 56.2133 151.877 57.92C153.299 59.5698 155.006 60.3947 156.997 60.3947C159.898 60.3947 162.117 59.0578 163.653 56.384C165.189 53.6533 165.957 50.5244 165.957 46.9973C165.957 43.4133 165.16 40.1422 163.567 37.184C162.031 34.1689 159.841 32.6613 156.997 32.6613ZM212.712 19.9467C217.49 19.9467 221.672 22.3076 225.256 27.0293C228.897 31.6942 230.717 38.1227 230.717 46.3147C230.717 53.3689 228.612 59.5698 224.402 64.9173C220.193 70.208 215.556 72.8533 210.493 72.8533C208.104 72.8533 205.743 72.1991 203.41 70.8907C201.135 69.5253 199.428 67.7333 198.29 65.5147V84.6293C198.29 86.3929 197.636 87.7298 196.328 88.64C195.019 89.5502 193.768 90.0053 192.573 90.0053C188.136 90.0053 185.917 87.6444 185.917 82.9227V27.1147C185.917 22.4498 188.136 20.1173 192.573 20.1173C197.181 20.1173 199.485 22.4498 199.485 27.1147C202.898 22.336 207.307 19.9467 212.712 19.9467ZM208.872 32.6613C205.913 32.6613 203.638 34.0267 202.045 36.7573C200.509 39.488 199.741 42.6169 199.741 46.144C199.741 49.7849 200.509 52.9422 202.045 55.616C203.638 58.2329 205.913 59.5413 208.872 59.5413C211.602 59.5413 213.593 58.2613 214.845 55.7013C216.153 53.1413 216.808 50.0693 216.808 46.4853C216.808 42.9013 216.153 39.7156 214.845 36.928C213.593 34.0836 211.602 32.6613 208.872 32.6613ZM244.307 0.32C246.583 0.32 248.46 1.088 249.939 2.624C251.475 4.10311 252.243 5.92356 252.243 8.08533C252.243 10.4178 251.475 12.3236 249.939 13.8027C248.46 15.2818 246.583 16.0213 244.307 16.0213C242.146 16.0213 240.268 15.2533 238.675 13.7173C237.139 12.1813 236.371 10.304 236.371 8.08533C236.371 5.92356 237.139 4.10311 238.675 2.624C240.268 1.088 242.146 0.32 244.307 0.32ZM244.478 21.312C249.086 21.312 251.39 23.5876 251.39 28.1387V65.088C251.39 69.696 249.114 72 244.563 72C240.012 72 237.737 69.696 237.737 65.088V28.1387C237.737 23.5876 239.984 21.312 244.478 21.312ZM279.516 20.6293C283.498 20.6293 287.111 21.2267 290.353 22.4213C293.596 23.616 296.327 25.6924 298.545 28.6507C300.764 31.552 301.873 35.136 301.873 39.4027V65.856C301.873 67.6764 301.248 69.2693 299.996 70.6347C298.801 71.9431 297.152 72.5973 295.047 72.5973C293.966 72.5973 292.771 72.2276 291.463 71.488C290.154 70.6916 289.5 69.4684 289.5 67.8187V66.1973C285.29 70.464 280.483 72.5973 275.079 72.5973C270.243 72.5973 266.403 71.2036 263.559 68.416C260.714 65.5716 259.292 62.2151 259.292 58.3467C259.292 54.08 260.942 50.3253 264.241 47.0827C267.541 43.7831 271.864 42.1333 277.212 42.1333C282.332 42.1333 286.542 43.328 289.841 45.7173V41.28C289.841 38.8907 288.704 36.928 286.428 35.392C284.209 33.7991 281.763 33.0027 279.089 33.0027C277.838 33.0027 276.131 33.2018 273.969 33.6C271.864 33.9413 270.3 34.112 269.276 34.112C264.952 34.112 262.791 32.2631 262.791 28.5653C262.791 26.1191 264.298 24.2702 267.313 23.0187C271.068 21.4258 275.136 20.6293 279.516 20.6293ZM280.54 52.4587C278.492 52.4587 276.728 52.8284 275.249 53.568C273.827 54.2507 273.116 55.2462 273.116 56.5547C273.116 57.92 273.77 58.9724 275.079 59.712C276.387 60.4516 277.952 60.8213 279.772 60.8213C281.934 60.8213 283.84 60.3947 285.489 59.5413C287.139 58.688 287.964 57.5502 287.964 56.128C287.964 55.0471 287.196 54.1653 285.66 53.4827C284.181 52.8 282.474 52.4587 280.54 52.4587ZM316.432 56.2987C318.708 56.2987 320.585 57.0382 322.064 58.5173C323.6 59.9964 324.368 61.8738 324.368 64.1493C324.368 66.368 323.6 68.2453 322.064 69.7813C320.585 71.2604 318.708 72 316.432 72C314.271 72 312.422 71.2604 310.886 69.7813C309.35 68.2453 308.582 66.368 308.582 64.1493C308.582 61.9876 309.35 60.1387 310.886 58.6027C312.422 57.0667 314.271 56.2987 316.432 56.2987Z" fill="#303030"/>
</svg>
